<svg width="268" height="280" viewBox="0 0 268 280" fill="none" xmlns="http://www.w3.org/2000/svg">
<path d="M109.488 116.037C97.2734 136.508 84.4163 151.338 80.7682 149.157L21.6963 113.841C1.2475 101.613 -5.43584 75.1092 6.77879 54.6381C12.8861 44.4062 22.553 37.612 33.2537 34.9136C43.9544 32.2078 55.689 33.5977 65.9171 39.7043L124.989 75.0205C128.637 77.2014 121.695 95.5656 109.481 116.037H109.488Z" fill="#FFC219" stroke="black" stroke-miterlimit="10"/>
<path d="M166.279 93.9009C150.697 75.8621 140.676 58.9913 143.888 56.2115L195.922 11.1513C213.942 -4.44784 241.17 -2.47392 256.752 15.5576C264.543 24.577 267.947 35.8956 267.15 46.9186C266.36 57.9415 261.36 68.6613 252.351 76.4609L200.316 121.521C197.104 124.301 181.862 111.94 166.287 93.9083L166.279 93.9009Z" fill="#FFC219" stroke="black" stroke-miterlimit="10"/>
<path d="M164.841 210.508C165.011 211.484 165.004 212.512 164.79 213.547C163.881 217.968 159.569 220.807 155.152 219.897L131.115 214.936C126.698 214.027 123.863 209.71 124.771 205.289C125.679 200.868 129.992 198.029 134.408 198.938L158.446 203.899C161.828 204.594 164.288 207.3 164.841 210.508Z" fill="#FFC219" stroke="black" stroke-miterlimit="10"/>
<path d="M124.343 259.612C124.003 260.788 123.442 261.926 122.644 262.954C119.247 267.36 112.926 268.181 108.524 264.788L84.531 246.283C80.1296 242.882 79.3098 236.554 82.6995 232.148C86.0965 227.741 92.418 226.921 96.8194 230.314L120.813 248.819C124.188 251.421 125.458 255.746 124.343 259.612Z" fill="#FFC219" stroke="black" stroke-miterlimit="10"/>
<path d="M159.681 186.555C158.794 186.769 157.849 186.821 156.896 186.695C152.79 186.126 149.925 182.341 150.494 178.23L153.581 155.852C154.149 151.741 157.93 148.873 162.036 149.442C166.142 150.011 169.008 153.797 168.439 157.907L165.352 180.286C164.917 183.435 162.59 185.86 159.681 186.562V186.555Z" fill="#06DBA7" stroke="black" stroke-miterlimit="10"/>
<path d="M109.767 199.921C109.184 200.417 108.504 200.809 107.744 201.067C104.48 202.184 100.92 200.439 99.805 197.171L93.7198 179.354C92.6047 176.079 94.3475 172.523 97.6117 171.407C100.876 170.29 104.435 172.035 105.55 175.303L111.636 193.12C112.492 195.626 111.665 198.302 109.767 199.921Z" fill="#9904FF" stroke="black" stroke-miterlimit="10"/>
<path d="M174.738 222.218C176.156 222.107 177.611 222.255 179.058 222.691C185.225 224.576 188.703 231.104 186.82 237.285L176.57 270.923C174.687 277.096 168.166 280.578 161.992 278.693C155.825 276.808 152.347 270.28 154.23 264.099L164.481 230.461C165.921 225.73 170.093 222.58 174.738 222.218Z" fill="#9904FF" stroke="black" stroke-miterlimit="10"/>
</svg>
